<svg id="Layer1" xmlns="http://www.w3.org/2000/svg" viewBox="0 0 1210.5 843.92"><defs><style>.cls-1{fill:#85c9ef;}.cls-2,.cls-6{fill:none;}.cls-2{stroke:#39864e;stroke-width:6px;}.cls-10,.cls-12,.cls-17,.cls-2,.cls-6,.cls-7,.cls-8{stroke-miterlimit:10;}.cls-3{fill:#00a698;}.cls-4{fill:#366b34;}.cls-5{fill:#39864e;}.cls-6{stroke:#366b34;stroke-width:14px;}.cls-10,.cls-7{fill:#fff4ea;stroke:#c3b8c5;}.cls-7{stroke-width:2px;}.cls-8{fill:#231f20;stroke:#e8b91e;}.cls-10,.cls-8{stroke-width:4px;}.cls-9{opacity:0.9;}.cls-11{opacity:0.8;}.cls-12{fill:#e8b91e;stroke:#fff4ea;}.cls-13{opacity:0.7;}.cls-14{fill:#fffded;}.cls-15{fill:#fff;}.cls-16{opacity:0.5;}.cls-17{fill:#faf17d;stroke:#f7f4b2;stroke-width:5px;}</style></defs><title>cvijece_simiclucija</title><rect class="cls-1" x="615.29" y="2.03" width="595.21" height="841.9"/><path class="cls-2" d="M883.52,194.53s299.15-89.2,176.48,282.8-98.67,335.34-98.67,335.34" transform="translate(0 2.03)"/><rect class="cls-3" y="3.03" width="595.29" height="840.88"/><g id="stabiljka"><path class="cls-4" d="M391.68,450.53s27.88,51.94,54.7,42.33,29.35-22.37,46-26.22c0,0-20.24-35-37.24-38.56S416.15,435,391.68,450.53Z" transform="translate(0 2.03)"/><path class="cls-5" d="M1092.94,281.68s53.49,24.78,69.16,1,10-35.52,21-48.58c0,0-37.19-15.79-52.94-8.46S1103.19,254.59,1092.94,281.68Z" transform="translate(0 2.03)"/><path class="cls-4" d="M366,673.86s26.85,52.48,53.86,43.4,29.78-21.79,46.47-25.32c0,0-19.55-35.35-36.47-39.28S390.78,658.84,366,673.86Z" transform="translate(0 2.03)"/><path class="cls-4" d="M378.7,555.74s22.33,54.56,50,47.8,31.52-19.2,48.44-21.31c0,0-16.5-36.87-33-42.22S404.65,542.87,378.7,555.74Z" transform="translate(0 2.03)"/><path class="cls-4" d="M354.57,452.16s-43.3,40-65.52,22.17-20.45-30.72-34.9-39.79c0,0,30.54-26.44,47.78-24.3S336.49,429.52,354.57,452.16Z" transform="translate(0 2.03)"/><path class="cls-4" d="M306,671.65s-42.51,40.85-65.08,23.45-21-30.31-35.67-39.09c0,0,30-27,47.3-25.24S287.47,649.37,306,671.65Z" transform="translate(0 2.03)"/><path class="cls-4" d="M332.52,555.85s-38.91,44.29-62.86,28.87-23.53-28.44-38.85-36c0,0,27.63-29.47,45-29.14S312.18,535.21,332.52,555.85Z" transform="translate(0 2.03)"/><path class="cls-6" d="M280.6,199.24S387,325,368,478s-68,281-63,304" transform="translate(0 2.03)"/></g><g id="cvijet"><g id="latice2"><path class="cls-7" d="M282.24,199s-46.13-108.51-101.3-94.23S118.43,144,84.64,148.67c0,0,34,73.29,67.19,83.54S230.69,225.42,282.24,199Z" transform="translate(0 2.03)"/><path class="cls-7" d="M281.38,198.59s-50.16,106.71-2.75,138.32,70.92,20.45,96.93,42.53c0,0,32-74.19,17.5-105.77S335.45,219.4,281.38,198.59Z" transform="translate(0 2.03)"/><path class="cls-7" d="M280.27,198.16s117.25,12.35,131.55-42.81-4-73.7,8.37-105.51c0,0-80.59-5.87-105.66,18.18S282.18,140.25,280.27,198.16Z" transform="translate(0 2.03)"/></g><g id="mrlje"><path class="cls-8" d="M362,147s-51.33-32-51.33,30.33C310.67,178.33,366.18,197.71,362,147Z" transform="translate(0 2.03)"/><path class="cls-8" d="M183.75,189.22S202,246.89,242.48,199.5C243.13,198.74,213.51,148,183.75,189.22Z" transform="translate(0 2.03)"/><path class="cls-8" d="M308,295.11s45.71-39.62-13.84-58C293.17,236.82,258.29,284.15,308,295.11Z" transform="translate(0 2.03)"/></g><g id="latice1" class="cls-9"><path class="cls-10" d="M281,201s77.33-89,40.33-132.33-62.66-39-81.66-67.34c0,0-51,62.67-45.67,97S234.65,166.24,281,201Z" transform="translate(0 2.03)"/><path class="cls-10" d="M281,200.06s-117.89,1.66-125.54,58.12,12.68,72.72,4.22,105.76c0,0,80.71-3.74,102.76-30.59S286,257.78,281,200.06Z" transform="translate(0 2.03)"/><path class="cls-10" d="M280.88,198.87s40.26,110.82,96.1,99.51,64.52-35.85,98.52-38.7c0,0-30-75-62.63-87S333.77,175.22,280.88,198.87Z" transform="translate(0 2.03)"/></g><g id="središte" class="cls-11"><path class="cls-12" d="M281,200l31.5-38s7.39-11.89,9-20.47a4.25,4.25,0,0,0-4.71-5c-5.76.74-14.93,4.71-26,9.83-12.41,5.75-15,11.85-18.87,21.74-1.64,4.16-2.31,10.87-.8,15.08C273.62,190,274.5,192.33,281,200Z" transform="translate(0 2.03)"/><path class="cls-12" d="M281,200l31.23-38.23s10.24-9.54,18.34-12.81a4.26,4.26,0,0,1,5.83,3.66c.38,5.8-1.75,15.56-4.64,27.39-3.26,13.28-8.75,17-17.7,22.7-3.77,2.42-10.22,4.37-14.64,3.7C292.24,205.34,289.8,204.92,281,200Z" transform="translate(0 2.03)"/><path class="cls-12" d="M280.91,199.61,233.09,187.4s-13.91-1.59-22.37.59a4.26,4.26,0,0,0-2.51,6.41c3.13,4.89,10.64,11.48,20,19.27,10.51,8.76,17.11,8.45,27.72,7.76,4.47-.3,10.82-2.56,14-5.73C275.05,210.55,276.76,208.77,280.91,199.61Z" transform="translate(0 2.03)"/><path class="cls-12" d="M280.92,199.58,233,187.72s-13-5.18-19.43-11.1a4.25,4.25,0,0,1,.82-6.83c5.07-2.83,14.81-5.09,26.73-7.52,13.41-2.75,19.08.64,28.1,6.28,3.79,2.36,8.32,7.37,9.6,11.65C280.93,187.17,281.6,189.55,280.92,199.58Z" transform="translate(0 2.03)"/><path class="cls-12" d="M280.63,199.23l14.55,47.17s5.9,12.69,12.18,18.77a4.26,4.26,0,0,0,6.78-1.2c2.53-5.23,4.23-15.08,6-27.12,2-13.54-1.73-19-7.86-27.7-2.58-3.65-7.83-7.89-12.18-8.93C293,198.53,290.61,198,280.63,199.23Z" transform="translate(0 2.03)"/><path class="cls-12" d="M280.6,199.24l14.9,47.06s2.37,13.8.67,22.37a4.26,4.26,0,0,1-6.26,2.86c-5.05-2.85-12.06-10-20.37-18.87-9.33-10-9.4-16.61-9.31-27.25,0-4.47,1.95-10.94,4.93-14.27C270,205.72,271.7,203.9,280.6,199.24Z" transform="translate(0 2.03)"/></g></g><g class="cls-13"><path class="cls-14" d="M881.79,197.29c5.61-13.28-110.51-75.56-116.58-62.71S877.9,206.5,881.79,197.29Z" transform="translate(0 2.03)"/><path class="cls-14" d="M889.91,201.29c7.1-12.56,127.33,41.35,120.87,54S885,210,889.91,201.29Z" transform="translate(0 2.03)"/><path class="cls-14" d="M884,203.9c11.89,8.17-52.35,123.21-64.4,115.67S875.71,198.24,884,203.9Z" transform="translate(0 2.03)"/><path class="cls-14" d="M887.92,195.72c-11.32-8.94,60.39-119.47,71.91-111.15S895.77,201.91,887.92,195.72Z" transform="translate(0 2.03)"/><path class="cls-14" d="M881.4,200.45c-5.61-13.29-131.22,26.51-126.25,39.82S885.29,209.66,881.4,200.45Z" transform="translate(0 2.03)"/><path class="cls-14" d="M889.93,197.41c-4.06-13.84,118.42-62.42,123-49S892.74,207,889.93,197.41Z" transform="translate(0 2.03)"/><path class="cls-14" d="M887.65,203.51c14.14-2.83,51.8,123.44,38,126.81S877.84,205.47,887.65,203.51Z" transform="translate(0 2.03)"/><path class="cls-14" d="M884.54,195C870.25,196.84,841,68.36,855,65.91S894.46,193.65,884.54,195Z" transform="translate(0 2.03)"/></g><g class="cls-11"><path class="cls-15" d="M881.64,198c1.21-14.37-128.51-37.51-130.3-23.41S880.8,208,881.64,198Z" transform="translate(0 2.03)"/><path class="cls-15" d="M890.6,199.3c2.84-14.14,133.87-.23,131.66,13.81S888.63,209.1,890.6,199.3Z" transform="translate(0 2.03)"/><path class="cls-15" d="M885.75,203.64c13.84,4.07-11.49,133.37-25.28,129.94S876.16,200.82,885.75,203.64Z" transform="translate(0 2.03)"/><path class="cls-15" d="M887,194.63c-13.54-5,20.3-132.32,33.84-128S896.36,198.08,887,194.63Z" transform="translate(0 2.03)"/><path class="cls-15" d="M882.25,201.15c-9.46-10.89-116.5,66-107.64,77.07S888.81,208.7,882.25,201.15Z" transform="translate(0 2.03)"/><path class="cls-15" d="M889.41,195.61c-8.15-11.89,93.19-96.11,101.71-84.73S895.07,203.86,889.41,195.61Z" transform="translate(0 2.03)"/><path class="cls-15" d="M889.14,202.11c12.56-7.07,87.58,101.25,75.5,108.75S880.43,207,889.14,202.11Z" transform="translate(0 2.03)"/><path class="cls-15" d="M883.53,195c-13,6.23-80.67-106.83-68.13-113.51S892.55,190.63,883.53,195Z" transform="translate(0 2.03)"/></g><g class="cls-16"><path class="cls-14" d="M881.47,197.11c2.71-14.16-123.88-50.74-127.13-36.91S879.59,206.93,881.47,197.11Z" transform="translate(0 2.03)"/><path class="cls-14" d="M890.25,199.32c4.31-13.77,133.16,13.77,129.49,27.5S887.27,208.86,890.25,199.32Z" transform="translate(0 2.03)"/><path class="cls-14" d="M885,203.12c13.34,5.5-25.39,131.44-38.74,126.59S875.73,199.31,885,203.12Z" transform="translate(0 2.03)"/><path class="cls-14" d="M887.13,194.29c-12.94-6.37,34-129.47,47-123.74S896.11,198.7,887.13,194.29Z" transform="translate(0 2.03)"/><path class="cls-14" d="M881.75,200.28c-8.27-11.82-122.76,53.4-115.11,65.38S887.48,208.48,881.75,200.28Z" transform="translate(0 2.03)"/><path class="cls-14" d="M889.45,195.52c-6.86-12.68,102.73-85.83,110-73.62S894.21,204.32,889.45,195.52Z" transform="translate(0 2.03)"/><path class="cls-14" d="M888.5,202c13.24-5.72,76.5,109.86,63.71,116S879.32,205.93,888.5,202Z" transform="translate(0 2.03)"/><path class="cls-14" d="M883.67,194.25c-13.58,4.84-69-114.68-55.88-120S893.1,190.9,883.67,194.25Z" transform="translate(0 2.03)"/></g><path class="cls-15" d="M881.48,197.86c-1.83-14.3-133.51-9.76-132.31,4.4S882.75,207.78,881.48,197.86Z" transform="translate(0 2.03)"/><path class="cls-15" d="M890.51,197.23c-.18-14.42,130.85-28.26,131.63-14.07S890.64,207.23,890.51,197.23Z" transform="translate(0 2.03)"/><path class="cls-15" d="M886.67,202.49c14.39,1.08,16.69,132.82,2.49,132.36S876.7,201.74,886.67,202.49Z" transform="translate(0 2.03)"/><path class="cls-15" d="M886,193.42c-14.28-2-7.85-133.64,6.29-132.23S895.88,194.83,886,193.42Z" transform="translate(0 2.03)"/><path class="cls-15" d="M882.73,200.79c-11.53-8.67-100.1,88.88-89.11,97.9S890.72,206.8,882.73,200.79Z" transform="translate(0 2.03)"/><path class="cls-15" d="M888.57,193.88c-10.46-9.93,71-113.5,81.71-104.16S895.83,200.76,888.57,193.88Z" transform="translate(0 2.03)"/><path class="cls-15" d="M889.67,200.29c10.8-9.55,106.83,80.66,96.59,90.52S882.17,206.91,889.67,200.29Z" transform="translate(0 2.03)"/><path class="cls-15" d="M882.69,194.46c-11.42,8.82-101.26-87.56-90.39-96.72S890.6,188.35,882.69,194.46Z" transform="translate(0 2.03)"/><circle class="cls-17" cx="886" cy="202.03" r="21"/></svg>